<svg xmlns="http://www.w3.org/2000/svg" viewBox="0 0 133 190.16"><defs><style>.cls-1{fill:#d85656;}.cls-2{fill:#ff8080;}.cls-3{fill:#ffafa4;}.cls-4{fill:#ea7575;}.cls-5{fill:#f9c07d;}.cls-6{fill:#d19a69;}.cls-7{fill:#ffdba6;}.cls-8{fill:#666;}</style></defs><title>baloon</title><g id="Layer_2" data-name="Layer 2"><g id="box"><circle class="cls-1" cx="15.17" cy="108.25" r="3.5"/><circle class="cls-1" cx="118.17" cy="108.25" r="3.5"/><circle class="cls-2" cx="66.5" cy="66.5" r="65.5"/><path class="cls-3" d="M15,66.5C15,37.86,32.88,1.93,68.17,1c-.56,0-1.11,0-1.67,0a65.5,65.5,0,0,0,0,131c.56,0,1.1,0,1.66,0C32.88,131.07,15,95.63,15,66.5Z"/><path class="cls-4" d="M66.5,1c-3.7,0,3.54-.59,0,0,29.79,5.81,44.67,39.2,44.67,65.5,0,26.75-14.9,59.74-44.67,65.5,3.53.59-3.69,0,0,0a65.5,65.5,0,1,0,0-131Z"/><path class="cls-1" d="M66.5,133A66.5,66.5,0,1,1,133,66.5,66.58,66.58,0,0,1,66.5,133Zm0-131A64.5,64.5,0,1,0,131,66.5,64.57,64.57,0,0,0,66.5,2Z"/><path class="cls-1" d="M69.5,132H66.21l-1.39-.09-1.62-.11c-.58,0-1.18-.16-1.83-.24a45.2,45.2,0,0,1-9.11-2.21,45.75,45.75,0,0,1-10.87-5.52,53.93,53.93,0,0,1-5.5-4.33,58.79,58.79,0,0,1-5.19-5.4,64.31,64.31,0,0,1-8.78-13.55,80.36,80.36,0,0,1-7.91-34,78.39,78.39,0,0,1,2.18-17.71A80.38,80.38,0,0,1,22,32.57,64.81,64.81,0,0,1,30.75,19a59.85,59.85,0,0,1,5.18-5.41,54.62,54.62,0,0,1,5.49-4.34A45.68,45.68,0,0,1,52.26,3.7a44.84,44.84,0,0,1,9.11-2.23c.64-.08,1.25-.2,1.83-.24l1.62-.12L66.21,1H69.5l-2.12.12-1.16.07-1.38.17c-1,.12-2.14.24-3.41.5a47,47,0,0,0-19.37,8.32,53.43,53.43,0,0,0-5.26,4.37,58.49,58.49,0,0,0-4.93,5.4,69.42,69.42,0,0,0-8.34,13.38A78.59,78.59,0,0,0,18,49.26a76.83,76.83,0,0,0-2,17.28,78.5,78.5,0,0,0,7.47,33.24,68.59,68.59,0,0,0,8.34,13.37,57.44,57.44,0,0,0,4.94,5.39A52.74,52.74,0,0,0,42,122.89a48.86,48.86,0,0,0,10.49,5.74,44.64,44.64,0,0,0,8.92,2.52c1.27.26,2.41.38,3.4.5l1.38.16,1.16.07Z"/><path class="cls-1" d="M62,132l2.12-.12,1.16-.07,1.38-.16c1-.12,2.14-.24,3.4-.5A44.64,44.64,0,0,0,79,128.64a48.86,48.86,0,0,0,10.49-5.74,52.74,52.74,0,0,0,5.27-4.35,57.42,57.42,0,0,0,4.94-5.39A68.59,68.59,0,0,0,108,99.78a78.5,78.5,0,0,0,7.47-33.24,76.83,76.83,0,0,0-2-17.28A78.59,78.59,0,0,0,108,33.32a69.42,69.42,0,0,0-8.34-13.38,58.49,58.49,0,0,0-4.93-5.4,53.43,53.43,0,0,0-5.26-4.37A47,47,0,0,0,70.07,1.86c-1.26-.26-2.41-.39-3.41-.5l-1.38-.17-1.16-.07L62,1h3.29l1.39.09,1.62.12c.58,0,1.18.16,1.83.24A44.84,44.84,0,0,1,79.24,3.7,45.67,45.67,0,0,1,90.09,9.26a54.62,54.62,0,0,1,5.49,4.34A59.87,59.87,0,0,1,100.75,19a64.81,64.81,0,0,1,8.78,13.55,80.38,80.38,0,0,1,5.79,16.27,78.38,78.38,0,0,1,2.18,17.71,80.36,80.36,0,0,1-7.91,34,64.32,64.32,0,0,1-8.78,13.55,58.79,58.79,0,0,1-5.19,5.4,53.94,53.94,0,0,1-5.5,4.33,45.75,45.75,0,0,1-10.87,5.52,45.2,45.2,0,0,1-9.11,2.21c-.64.08-1.25.2-1.83.24l-1.62.11-1.39.09H62Z"/><path class="cls-1" d="M66.17,1l.19,5.61c.09,3.57.27,8.67.38,14.78S67,34.64,67,42.29l.09,11.79,0,12.17c0,4.08,0,8.16,0,12.17L67,90.21c-.07,7.65-.18,14.78-.31,20.9s-.29,11.21-.38,14.78l-.19,5.61L66,125.89c-.09-3.57-.27-8.67-.38-14.78s-.24-13.25-.31-20.9L65.2,78.42c0-4,0-8.09,0-12.17l0-12.17.09-11.79c.07-7.65.18-14.78.31-20.9s.29-11.21.38-14.78Z"/><path class="cls-1" d="M74.17,160.5a1,1,0,0,1-1-1v-45a1,1,0,0,1,2,0v45A1,1,0,0,1,74.17,160.5Z"/><path class="cls-1" d="M56.17,160.5a1,1,0,0,1-1-1v-45a1,1,0,0,1,2,0v45A1,1,0,0,1,56.17,160.5Z"/><path class="cls-1" d="M83.17,160.5a1,1,0,0,1-.57-.18,1,1,0,0,1-.25-1.39L118,107.68a1,1,0,0,1,1.64,1.14L84,160.07A1,1,0,0,1,83.17,160.5Z"/><path class="cls-1" d="M49.17,160.5a1,1,0,0,1-.83-.45l-34-51.25A1,1,0,0,1,16,107.7l34,51.25a1,1,0,0,1-.83,1.55Z"/><polygon class="cls-5" points="86.67 165.16 45.67 165.16 49.46 190.16 82.88 190.16 86.67 165.16"/><polygon class="cls-6" points="81.33 165.5 77.54 189.5 82.54 189.5 86.33 165.5 81.33 165.5"/><polygon class="cls-7" points="50.54 165.5 54.33 189.5 49.33 189.5 45.54 165.5 50.54 165.5"/><path class="cls-8" d="M85.5,166.16l-3.49,23H50.32l-3.49-23H85.5m1.16-1h-41l3.79,25H82.88l3.79-25Z"/><rect class="cls-5" x="43.67" y="158.66" width="45" height="7"/><rect class="cls-6" x="80.67" y="158.66" width="8" height="7"/><rect class="cls-7" x="43.67" y="158.66" width="7" height="7"/><path class="cls-8" d="M89.17,166.16h-46v-8h46Zm-45-1h44v-6h-44Z"/><circle class="cls-1" cx="56.17" cy="114.25" r="3.5"/><circle class="cls-1" cx="74.17" cy="114.25" r="3.5"/></g></g></svg>