<svg xmlns="http://www.w3.org/2000/svg" viewBox="0 0 150.51 126.75"><defs><style>.cls-1{fill:#55b3f2;}.cls-2{fill:none;stroke:#55b3f2;stroke-linecap:round;stroke-miterlimit:10;stroke-width:2px;}.cls-3{fill:#fff;}.cls-4{fill:#999;}.cls-5{fill:#e6e6e6;}.cls-6{fill:#369ed8;}</style></defs><title>box</title><g id="Layer_2" data-name="Layer 2"><g id="box"><circle class="cls-1" cx="149.01" cy="125.25" r="1.5"/><line class="cls-2" x1="134" y1="125.25" x2="144" y2="125.25"/><path class="cls-1" d="M89.5,0C79.43,0,70.75,7.92,70.75,17.86V36.75H88c10.07,0,20.25-8.81,20.25-18.75S99.57,0,89.5,0Zm-.62,25.93H81.79V18.16a7.72,7.72,0,0,1,15.42.06C97.21,22.31,93,25.93,88.88,25.93Z"/><path class="cls-1" d="M52,0C41.93,0,33.25,8.06,33.25,18S43.43,36.75,53.5,36.75H70.75V17.86C70.75,7.92,62.07,0,52,0Zm7.71,25.93H52.62c-4.14,0-8.33-3.62-8.33-7.71a7.72,7.72,0,0,1,15.42-.06Z"/><rect class="cls-3" x="81.75" y="36.5" width="47.75" height="21.5"/><path class="cls-4" d="M129,37V57.5H82.25V37H129m1-1H81.25V58.5H130V36Z"/><rect class="cls-3" x="17.5" y="57.75" width="105" height="67.5"/><rect class="cls-5" x="17.5" y="57.75" width="105" height="4.5"/><path class="cls-4" d="M121.5,58.75v65.5H18.5V58.75h103m1-1H17.5v67.5h105V57.75Z"/><rect class="cls-1" x="58.75" y="57.75" width="22.5" height="67.5"/><rect class="cls-6" x="58.75" y="57.75" width="22.5" height="4.5"/><rect class="cls-6" x="57.63" y="34.79" width="24.94" height="1.27"/><rect class="cls-3" x="10.5" y="36.5" width="47.75" height="21.5"/><path class="cls-4" d="M57.75,37V57.5H11V37H57.75m1-1H10V58.5H58.75V36Z"/><rect class="cls-1" x="57.63" y="36" width="24.94" height="22.5"/><line class="cls-2" x1="1" y1="125.25" x2="130" y2="125.25"/></g></g></svg>