<svg xmlns="http://www.w3.org/2000/svg" viewBox="0 0 29.5 36.59"><defs><style>.cls-1{fill:#ff8080;}.cls-2{fill:#fbb;}.cls-3{fill:#666;}</style></defs><title>chord</title><g id="Layer_2" data-name="Layer 2"><g id="box"><path class="cls-1" d="M8.25,7.35v21.1a7.06,7.06,0,0,0-2.5,0c-3,.54-5.5,2.71-5.5,4.85s2.46,3.44,5.5,2.9,5.5-2.71,5.5-4.85v0h0v-16l15-5v12.6a7.06,7.06,0,0,0-2.5,0c-3,.54-5.5,2.71-5.5,4.85s2.46,3.44,5.5,2.9,5.5-2.71,5.5-4.85v0h0V.35Z"/><polygon class="cls-2" points="8.04 7.53 8.04 10.59 29.04 4.25 29.04 0.69 8.04 7.53"/><path class="cls-3" d="M4.41,36.59a5.21,5.21,0,0,1-3.35-1A2.84,2.84,0,0,1,0,33.32c0-2.25,2.56-4.54,5.71-5.1A7.43,7.43,0,0,1,8,28.15v-21L29.5,0V26.1c-.18,2.19-2.66,4.33-5.69,4.87A5.86,5.86,0,0,1,19.07,30,2.84,2.84,0,0,1,18,27.82c0-2.25,2.56-4.54,5.71-5.1A7.43,7.43,0,0,1,26,22.65v-12L11.5,15.53V31.6c-.18,2.19-2.66,4.33-5.69,4.87A7.91,7.91,0,0,1,4.41,36.59Zm2.66-8a7.37,7.37,0,0,0-1.28.12C2.87,29.23.5,31.29.5,33.32a2.35,2.35,0,0,0,.89,1.84A5.37,5.37,0,0,0,5.71,36C8.63,35.46,11,33.39,11,31.37V15.17L26.5,10V23.25l-.3-.05a6.77,6.77,0,0,0-2.41,0c-2.92.52-5.29,2.58-5.29,4.61a2.35,2.35,0,0,0,.89,1.84,5.37,5.37,0,0,0,4.32.81C26.63,30,29,27.89,29,25.87V.69L8.5,7.53V28.75l-.3-.05A6.24,6.24,0,0,0,7.08,28.59Z"/></g></g></svg>