<svg xmlns="http://www.w3.org/2000/svg" viewBox="0 0 40.45 42.54"><defs><style>.cls-1{fill:#ff8080;}.cls-1,.cls-2,.cls-6,.cls-9{stroke:#666;}.cls-1,.cls-9{stroke-miterlimit:10;}.cls-2{fill:#f2a85f;}.cls-2,.cls-6{stroke-linecap:round;stroke-linejoin:round;}.cls-3{fill:#f9c07d;}.cls-4{fill:#ffd9b3;}.cls-5{fill:#666;}.cls-6,.cls-9{fill:none;}.cls-7{fill:#55b3f2;}.cls-8{fill:#fcfcfc;}</style></defs><title>ducky</title><g id="Layer_2" data-name="Layer 2"><g id="box"><path class="cls-1" d="M38.77,5.94s.39,2.42-1,3-6.38,2.18-8.17,2-1.75-2.3-1.75-2.3Z"/><path class="cls-2" d="M34.48,20.75s2.89-.23,3.41,1.65-1.42,3.35-1.42,3.35S33.1,22.86,34.48,20.75Z"/><path class="cls-1" d="M26.64,4.06a2.14,2.14,0,0,1,3.4,0s3.84-.26,5.39-1.34c0,0,.35-3.77,3.34-1.23s-.6,4.9-.6,4.9-4.51,3-8.55,2.71S26.64,4.06,26.64,4.06Z"/><path class="cls-3" d="M.52,28s2-2.67,6.88,2.51c0,0,12.78-7.72,12.76-11.74a9.34,9.34,0,1,1,10.14-3.37S41.57,26.19,33.8,32.7,10.44,42,10.44,42,0,36.75.52,28Z"/><path class="cls-4" d="M16.72,12.28a9.32,9.32,0,0,0,6,5.49c0,4-12.76,11.74-12.76,11.74l-.37-.38c3.65-2.41,10.58-7.38,10.56-10.34a9.32,9.32,0,0,1,.52-18A9.34,9.34,0,0,0,16.72,12.28Z"/><circle class="cls-5" cx="22.96" cy="8.64" r="3.54" transform="translate(-1.57 9.12) rotate(-21.75)"/><path class="cls-2" d="M30.47,28.68c-.6,2.31-2.57,5.26-8.25,7.4,0,0-4.54,2.58-5.74,1.13s0-1.61,0-1.61-2.64.66-3.54-.61c-.78-1.1-.91-2,.88-4.13,0,0-3.19-1.59,1-3.63,2.93-1.44,7.69-4.5,11.55-4.35A4.58,4.58,0,0,1,30.47,28.68Z"/><path class="cls-6" d="M16.46,35.59s4.87-1.67,6.47-3.08"/><path class="cls-6" d="M13.8,30.85s3.61-2.79,7.13-2.69"/><circle class="cls-7" cx="22.96" cy="8.64" r="1.97" transform="translate(-1.57 9.12) rotate(-21.75)"/><circle class="cls-8" cx="23.68" cy="6.97" r="1.4" transform="translate(-0.9 9.27) rotate(-21.75)"/><path class="cls-4" d="M10.44,42S0,36.75.52,28a2.16,2.16,0,0,1,1.72-.68c-.54,8.72,9.92,14,9.92,14"/><path class="cls-9" d="M.52,28s2-2.67,6.88,2.51c0,0,12.78-7.72,12.76-11.74a9.34,9.34,0,1,1,10.14-3.37S41.57,26.19,33.8,32.7,10.44,42,10.44,42,0,36.75.52,28Z"/></g></g></svg>