<svg xmlns="http://www.w3.org/2000/svg" viewBox="0 0 44.36 44.36"><defs><style>.cls-1{fill:#666;}.cls-2{fill:#e6e6e6;}.cls-3{fill:#f9f9f9;}.cls-4{fill:none;}.cls-4,.cls-5{stroke:#666;stroke-miterlimit:10;}.cls-5{fill:#fff;}</style></defs><title>robot</title><g id="Layer_2" data-name="Layer 2"><g id="box"><rect class="cls-1" x="34.25" y="28.72" width="7.5" height="3" transform="translate(32.49 -18.02) rotate(45)"/><rect class="cls-1" x="26.47" y="36.5" width="7.5" height="3" transform="translate(35.72 -10.24) rotate(45)"/><path class="cls-1" d="M30.92,44.36C29.76,43.19,29,42,30.22,40.83L33,38c1.17-1.17,2.37-.46,3.54.71Z"/><path class="cls-1" d="M38.7,36.58C37.54,35.41,36.83,34.21,38,33l2.83-2.83c1.17-1.17,2.37-.46,3.54.71Z"/><rect class="cls-2" x="12.62" y="15.62" width="26" height="20" rx="5" ry="5" transform="translate(-10.61 25.62) rotate(-45)"/><path class="cls-3" d="M23.71,12.39c.66-2.67,5.13-1.94,7.07,0l7.07,7.07a5,5,0,0,1,0,7.07,6.73,6.73,0,0,0-1.68-5.21L29,14.16C27.4,12.55,27.19,11.58,23.71,12.39Z"/><rect class="cls-4" x="12.37" y="15.37" width="26" height="20" rx="5" ry="5" transform="translate(-10.51 25.37) rotate(-45)"/><rect class="cls-1" x="3.77" y="0.27" width="3" height="10" transform="translate(-2.18 5.27) rotate(-45)"/><rect class="cls-1" x="0.86" y="19.24" width="10" height="10" rx="3" ry="3" transform="translate(-15.43 11.24) rotate(-45)"/><rect class="cls-1" x="19.24" y="0.86" width="10" height="10" rx="3" ry="3" transform="translate(2.96 18.86) rotate(-45)"/><rect class="cls-2" x="2.05" y="5.05" width="26" height="20" rx="5" ry="5" transform="translate(-6.23 15.05) rotate(-45)"/><path class="cls-3" d="M13.75,2.43c.66-2.67,5.13-1.94,7.07,0L27.89,9.5a5,5,0,0,1,0,7.07,6.73,6.73,0,0,0-1.68-5.21L19.05,4.2C17.44,2.59,17.23,1.62,13.75,2.43Z"/><rect class="cls-4" x="2.05" y="5.05" width="26" height="20" rx="5" ry="5" transform="translate(-6.23 15.05) rotate(-45)"/><circle class="cls-5" cx="9.66" cy="17.44" r="2.5" transform="translate(-9.5 11.94) rotate(-45)"/><circle class="cls-5" cx="17.44" cy="9.66" r="2.5" transform="translate(-1.72 15.16) rotate(-45)"/><circle class="cls-1" cx="3.5" cy="3.5" r="3.5" transform="translate(-1.45 3.5) rotate(-45)"/><rect class="cls-5" x="9.39" y="17.06" width="19" height="3.66" rx="1.83" ry="1.83" transform="translate(-7.82 18.89) rotate(-45)"/><rect class="cls-1" x="14.5" y="21.28" width="1" height="3" transform="translate(-11.71 17.27) rotate(-45)"/><rect class="cls-1" x="17.15" y="18.62" width="1" height="3" transform="translate(-9.06 18.37) rotate(-45)"/><rect class="cls-1" x="19.8" y="15.97" width="1" height="3" transform="translate(-6.41 19.47) rotate(-45)"/><rect class="cls-1" x="22.28" y="13.5" width="1" height="3" transform="translate(-3.93 20.5) rotate(-45)"/><path class="cls-1" d="M10.87,43.11a1,1,0,0,1,0-1.41,2.5,2.5,0,0,0-3.54-3.54,1,1,0,1,1-1.41-1.41,4.5,4.5,0,1,1,6.36,6.36A1,1,0,0,1,10.87,43.11Z"/><path class="cls-1" d="M43.11,10.87a1,1,0,0,0-1.41,0,2.5,2.5,0,0,1-3.54-3.54,1,1,0,1,0-1.41-1.41,4.5,4.5,0,0,0,6.36,6.36A1,1,0,0,0,43.11,10.87Z"/><rect class="cls-1" x="10.89" y="33.81" width="5" height="3" transform="translate(-21.05 19.81) rotate(-45)"/><rect class="cls-1" x="32.81" y="11.89" width="5" height="3" transform="translate(0.87 28.89) rotate(-45)"/></g></g></svg>