<svg xmlns="http://www.w3.org/2000/svg" viewBox="0 0 34.78 34.18"><defs><style>.cls-1{fill:#e6e6e6;}.cls-2{fill:#f9f9f9;}.cls-3{fill:none;stroke:#666;stroke-miterlimit:10;}.cls-4{fill:#ff8080;}</style></defs><title>rocket</title><g id="Layer_2" data-name="Layer 2"><g id="box"><path class="cls-1" d="M27.13,20.22a16.49,16.49,0,0,1-4.2,3.25,16.23,16.23,0,0,1-10,9.75l-.29-5.67s-1.12.68-1.5.3L6.35,23.06c-.37-.37.3-1.49.3-1.49L1,21.27A16.11,16.11,0,0,1,11.13,11.1a37.88,37.88,0,0,1,3.14-3.74C17.49,4.14,31.9-1,33.86.93S30.35,17,27.13,20.22Zm.3-13.16a3.6,3.6,0,1,0,0,5.08A3.6,3.6,0,0,0,27.43,7.06Z"/><path class="cls-2" d="M14.27,7.36a37.88,37.88,0,0,0-3.14,3.74A16.11,16.11,0,0,0,1,21.27l2.66.14h0c1.75-7.2,9.89-9.1,9.89-9.1A43.62,43.62,0,0,1,17,7.92c2.25-2.51,10.63-6.07,17.26-6.07C33.39-2.32,17.49,4.14,14.27,7.36Z"/><path class="cls-3" d="M27.13,20.22a16.49,16.49,0,0,1-4.2,3.25,16.23,16.23,0,0,1-10,9.75l-.29-5.67s-1.12.68-1.5.3L6.35,23.06c-.37-.37.3-1.49.3-1.49L1,21.27A16.11,16.11,0,0,1,11.13,11.1a37.88,37.88,0,0,1,3.14-3.74C17.49,4.14,31.9-1,33.86.93S30.35,17,27.13,20.22Zm.3-13.16a3.6,3.6,0,1,0,0,5.08A3.6,3.6,0,0,0,27.43,7.06Z"/><path class="cls-4" d="M3.92,24.88,9.3,30.26S2,34.74.74,33.44,3.92,24.88,3.92,24.88Z"/><path class="cls-3" d="M3.92,24.88,9.3,30.26S2,34.74.74,33.44,3.92,24.88,3.92,24.88Z"/></g></g></svg>