<svg xmlns="http://www.w3.org/2000/svg" viewBox="0 0 37.9 40.95"><defs><style>.cls-1{fill:#f9c07d;}.cls-2{fill:#ffd9b3;}.cls-3{fill:none;stroke:#666;stroke-miterlimit:10;}.cls-4{fill:#666;}</style></defs><title>star</title><g id="Layer_2" data-name="Layer 2"><g id="box"><path class="cls-1" d="M36.26,8.07c-.6-1.65-13-.23-13-.23S14.18.18,13.27.51s-2.93,12-2.93,12S-.08,19.42.53,21.08s10.82,6.56,10.82,6.56,2.53,12.1,4,12.78,9.49-8.28,9.49-8.28,11.83,1.74,12.51.27S32.19,20,32.19,20,36.86,9.72,36.26,8.07Z"/><path class="cls-2" d="M23.25,7.84S14.18.18,13.27.51c-.08,0-.17.15-.26.33,2.46,2,8,8,8.66,9.44,0,0,13.3-2.33,14.64-1.88a1.12,1.12,0,0,0,0-.33C35.66,6.42,23.25,7.84,23.25,7.84Z"/><path class="cls-2" d="M35.31,33c1.09-.05,1.88-.22,2-.57C38,30.94,32.19,20,32.19,20S37.1,31.37,35.31,33Z"/><path class="cls-3" d="M36.26,8.07c-.6-1.65-13-.23-13-.23S14.18.18,13.27.51s-2.93,12-2.93,12S-.08,19.42.53,21.08s10.82,6.56,10.82,6.56,2.53,12.1,4,12.78,9.49-8.28,9.49-8.28,11.83,1.74,12.51.27S32.19,20,32.19,20,36.86,9.72,36.26,8.07Z"/><ellipse class="cls-4" cx="16.69" cy="18.29" rx="1.5" ry="3" transform="matrix(0.94, -0.34, 0.34, 0.94, -5.25, 6.81)"/><ellipse class="cls-4" cx="22.33" cy="16.24" rx="1.5" ry="3" transform="translate(-4.21 8.62) rotate(-20)"/></g></g></svg>